<svg id="Layer_1" height="512" viewBox="0 0 100 100" width="512" xmlns="http://www.w3.org/2000/svg"><g><g><path d="m15.325 79.003c-.376 0-.7-.282-.744-.665-.047-.412.249-.783.66-.83.011-.001.52-.06 1.444-.21.403-.067.795.211.86.62.066.409-.211.794-.62.861-.979.16-1.515.22-1.515.22-.027.003-.056.004-.085.004z" fill="rgb(0,0,0)"/></g><g><path d="m16.06 78.16c-.06-.41.21-.8.63-.86.4-.07.79.21.86.62.06.41-.22.79-.62.86-.04.01-.09.01-.13.01-.361 0-.68-.26-.74-.63z" fill="rgb(0,0,0)"/></g><g><path d="m19.689 78.25c-.35 0-.659-.25-.729-.6-.04-.19 0-.39.109-.56.11-.17.28-.28.471-.32.95-.2 1.91-.42 2.859-.65.4-.09.811.16.9.56.02.06.03.12.02.18 0 .35-.239.64-.569.72-1 .24-1.97.46-2.9.65-.05.02-.1.02-.161.02zm5.741-1.39c-.34 0-.63-.22-.72-.55-.021-.06-.03-.12-.03-.18-.01-.35.22-.65.55-.74.971-.27 1.88-.53 2.79-.81.011 0 .011-.01.021-.01h.01c.39-.12.81.11.93.5.021.07.03.14.03.22 0 .33-.21.62-.53.72-.97.29-1.93.57-2.85.83-.071.01-.131.02-.201.02zm5.639-1.73c-.319 0-.609-.2-.71-.51-.029-.08-.04-.17-.04-.26 0-.31.211-.59.511-.69.899-.31 1.83-.64 2.75-.98.38-.15.83.06.97.44.03.08.05.17.05.26 0 .31-.2.59-.49.7-.949.36-1.899.69-2.8 1-.081.03-.161.04-.241.04zm5.521-2.06c-.3 0-.58-.18-.69-.47-.04-.09-.06-.19-.06-.29.01-.3.19-.57.47-.68.88-.36 1.79-.75 2.69-1.14.38-.17.83.01.99.38.04.09.069.19.069.29 0 .3-.17.58-.45.7-.88.39-1.8.78-2.739 1.16-.09.03-.181.05-.28.05zm5.389-2.38c-.279 0-.55-.17-.67-.42-.05-.11-.08-.22-.069-.33 0-.29.159-.55.42-.67.859-.41 1.729-.84 2.59-1.29l.04-.02c.359-.18.819-.02 1 .33.06.11.09.24.08.36 0 .27-.16.52-.4.65-.86.44-1.75.88-2.66 1.32-.1.05-.21.07-.331.07zm5.241-2.7c-.27 0-.52-.15-.65-.38-.06-.11-.1-.23-.1-.36 0-.28.15-.53.39-.66.891-.5 1.721-.98 2.53-1.46.34-.21.82-.09 1.03.25.07.12.1.26.1.39 0 .27-.13.51-.359.64-.851.51-1.721 1.01-2.57 1.49-.121.06-.241.09-.371.09zm5.06-3.02c-.261 0-.5-.13-.631-.35-.08-.12-.13-.27-.119-.42 0-.25.13-.48.34-.62.819-.52 1.64-1.07 2.43-1.62.33-.22.82-.13 1.04.19.09.13.14.27.14.42 0 .25-.12.48-.33.63-.779.54-1.59 1.08-2.47 1.65-.12.07-.26.12-.4.12zm4.84-3.36c-.24 0-.46-.11-.601-.3-.1-.13-.149-.29-.149-.45 0-.24.109-.46.3-.6.8-.59 1.58-1.19 2.31-1.78.311-.25.811-.2 1.061.11.109.14.17.31.16.48 0 .23-.101.44-.28.58-.771.61-1.561 1.22-2.351 1.81-.131.1-.29.15-.45.15zm4.6-3.68c-.22 0-.43-.09-.57-.26-.109-.13-.18-.3-.18-.47 0-.23.09-.44.26-.59.721-.61 1.44-1.26 2.15-1.91l.03-.03.08-.07v.01c.3-.21.729-.16.979.1.12.14.19.32.2.51 0 .21-.09.41-.24.56-.71.65-1.46 1.32-2.22 1.97-.14.12-.31.18-.489.18zm4.32-3.99c-.2 0-.391-.08-.53-.23-.14-.14-.22-.32-.22-.53 0-.2.08-.39.22-.53.75-.74 1.41-1.43 2.03-2.09.27-.29.77-.31 1.06-.04.15.14.24.35.24.56 0 .18-.07.36-.2.5-.67.72-1.37 1.44-2.07 2.14-.14.14-.33.22-.53.22zm4.01-4.31c-.18 0-.35-.07-.49-.19-.16-.14-.26-.36-.26-.58.01-.17.07-.34.19-.47.619-.72 1.239-1.47 1.859-2.24.25-.31.74-.37 1.05-.12.181.14.28.35.29.57 0 .18-.06.35-.17.48-.59.74-1.229 1.51-1.899 2.29l-.011.02c-.149.15-.339.24-.559.24zm3.679-4.6c-.16 0-.31-.05-.439-.15-.19-.14-.311-.36-.311-.6 0-.16.051-.31.15-.45.55-.74 1.12-1.54 1.68-2.37.23-.33.71-.43 1.04-.2.21.14.33.37.33.62 0 .15-.04.3-.13.42-.54.79-1.11 1.61-1.72 2.43-.14.19-.359.3-.6.3zm3.311-4.87c-.141 0-.271-.03-.391-.11-.229-.14-.359-.38-.359-.65.01-.13.05-.27.12-.38.54-.87 1.029-1.68 1.5-2.5.199-.35.67-.48 1.02-.28.23.13.37.37.38.63 0 .11-.02.22-.06.32l-.04.08c-.01.01-.021.03-.03.04-.479.84-.99 1.69-1.5 2.5-.14.22-.38.35-.64.35zm2.939-5.1c-.12 0-.239-.03-.35-.08-.25-.13-.4-.38-.4-.66 0-.12.03-.24.08-.36.46-.87.9-1.74 1.311-2.6.18-.36.64-.53 1-.35.27.12.43.38.43.67 0 .12-.02.23-.07.33-.449.92-.87 1.77-1.3 2.58l-.04.07c-.13.25-.38.4-.661.4zm2.541-5.3c-.1 0-.2-.02-.29-.07-.279-.12-.46-.39-.46-.69.011-.1.03-.2.07-.29.39-.92.77-1.82 1.11-2.7.149-.37.6-.57.979-.42.28.11.47.38.47.68 0 .1-.01.2-.05.29-.37.95-.76 1.87-1.14 2.75-.119.27-.39.45-.689.45zm2.16-5.48c-.08 0-.17-.01-.25-.04-.3-.11-.5-.39-.5-.7 0-.09.01-.17.04-.26.34-.93.65-1.86.93-2.77.12-.38.551-.61.94-.48.31.09.53.39.53.71 0 .08-.021.15-.04.23-.29.92-.61 1.87-.94 2.81-.11.3-.39.5-.71.5z" fill="rgb(0,0,0)"/></g><g><path d="m86.46 18.658c-.066 0-.134-.009-.202-.028-.398-.111-.632-.525-.521-.924.133-.476.263-.954.39-1.437.106-.4.521-.64.916-.534.401.105.641.515.535.916-.129.49-.261.976-.396 1.458-.092.332-.394.549-.722.549z" fill="rgb(0,0,0)"/></g></g><g><path d="m22.6 84.291c-.121 0-.245-.029-.359-.092l-8.714-4.769c-.193-.105-.33-.292-.374-.507-.045-.216.009-.441.145-.614l5.995-7.623c.257-.325.727-.383 1.054-.125.325.256.382.728.126 1.053l-5.448 6.926 7.938 4.344c.363.199.496.654.298 1.018-.139.247-.396.389-.661.389z" fill="rgb(0,0,0)"/></g></svg>