<svg id="Capa_1" enable-background="new 0 0 504.014 504.014" height="512" viewBox="0 0 504.014 504.014" width="512" xmlns="http://www.w3.org/2000/svg"><g><g><path d="m137.597 117.137c.072.001.144.002.216.002 2.608 0 5.112-1.036 6.961-2.883 1.899-1.899 2.939-4.491 2.881-7.176-.042-1.905-1.357-46.985-30.724-76.353s-74.45-30.683-76.355-30.726c-2.724-.043-5.277.982-7.176 2.881s-2.939 4.491-2.881 7.176c.042 1.905 1.357 46.985 30.724 76.353s74.45 30.684 76.354 30.726z"/><path d="m41.129 384.099c26.529 28.631 62.574 46.033 101.495 48.997.365.028.731.04 1.098.04h216.568c.366 0 .733-.013 1.098-.04 38.921-2.965 74.966-20.366 101.496-48.997 20.561-22.19 33.954-49.569 38.939-78.934h-499.633c4.985 29.366 18.379 56.744 38.939 78.934z"/><path d="m489.248 231.335h-474.482c-8.155 0-14.766 6.611-14.766 14.766v29.532h504.014v-29.532c0-8.155-6.611-14.766-14.766-14.766z"/><path d="m371.851 461.728c-2.727.33-5.466.604-8.219.814-1.093.084-2.22.126-3.341.126h-216.568c-1.121 0-2.247-.042-3.348-.127-2.75-.21-5.487-.484-8.212-.814l-7.415 22.987c-1.45 4.493-.663 9.409 2.115 13.225 2.779 3.816 7.216 6.075 11.937 6.075h226.412c4.721 0 9.158-2.257 11.937-6.074s3.565-8.732 2.115-13.225z"/><path d="m301.227 201.803 38.362-66.445c-11.867-4.76-24.814-7.385-38.362-7.385s-26.494 2.625-38.362 7.385z"/><path d="m400.29 201.803c-6.167-20.649-18.628-38.608-35.147-51.643l-29.816 51.643z"/><path d="m202.164 201.803h64.963l-29.817-51.643c-16.518 13.034-28.98 30.994-35.146 51.643z"/><path d="m171.659 201.803c8.777-38.521 34.324-70.732 68.54-88.496-15.72-25.637-41.32-44.501-71.263-51.384 7.412 22.346 8.168 41.098 8.243 44.499.234 10.695-3.966 21.157-11.523 28.714-7.443 7.439-17.329 11.533-27.843 11.533 0 0-.787-.008-.871-.01-5.64-.125-53.489-2.118-89.948-33.245-10.692 17.45-16.478 37.655-16.478 58.856 0 10.096 1.346 19.994 3.934 29.532h137.209z"/><path d="m430.806 201.803h34.09c2.5-8.087 4.865-17.551 6.483-28.028 6.876-44.544-3.161-86.256-29.025-120.627-2.854-3.794-8.008-5.012-12.256-2.892l-39.508 19.688c-3.021 1.505-5.061 4.459-5.403 7.817-.029.28-2.023 19.062-9.078 43.843 27.197 18.619 47.15 47.076 54.697 80.199z"/></g></g></svg>