<svg id="Layer_1" height="512" viewBox="0 0 100 100" width="512" xmlns="http://www.w3.org/2000/svg"><g><path d="m17.4 86.6c-.34 0-.64-.23-.73-.56-.05-.19-.02-.4.08-.57s.26-.3.46-.35c.79-.2 1.57-.42 2.3-.64.4-.11.82.13.94.52.02.07.03.14.03.22-.01.32-.23.61-.54.71-.78.22-1.57.44-2.35.64-.06.02-.13.03-.19.03zm5.19-1.53c-.32 0-.61-.21-.71-.52-.03-.07-.04-.15-.04-.22-.01-.33.2-.62.51-.73 1.02-.33 1.93-.65 2.81-.98.38-.13.82.07.96.45.03.08.05.17.05.26 0 .31-.2.59-.49.7-.91.34-1.87.67-2.86 1-.07.02-.15.04-.23.04zm5.62-2.08c-.3 0-.58-.18-.69-.47-.04-.09-.06-.19-.06-.29 0-.3.19-.57.47-.68.92-.39 1.83-.78 2.69-1.17l.03-.02c.37-.17.83.01.99.37.05.11.07.22.07.33-.01.29-.18.55-.44.67-.91.42-1.85.82-2.77 1.2-.09.04-.19.06-.29.06zm5.45-2.49c-.28 0-.54-.16-.67-.41-.05-.1-.07-.21-.08-.33 0-.28.16-.55.42-.68.88-.44 1.76-.91 2.62-1.38.36-.2.83-.06 1.02.29.06.11.09.23.09.36.01.27-.14.53-.38.66-.9.5-1.8.97-2.68 1.41-.11.05-.22.08-.34.08zm5.25-2.9c-.26 0-.5-.13-.64-.36-.07-.12-.11-.25-.11-.39 0-.26.14-.5.36-.64.85-.51 1.69-1.04 2.51-1.58.34-.22.82-.13 1.04.21.08.12.13.27.12.42 0 .25-.12.48-.33.62-.86.56-1.72 1.11-2.56 1.61-.12.08-.25.11-.39.11zm5-3.3c-.24 0-.47-.11-.61-.31-.09-.13-.14-.29-.14-.45.01-.24.12-.46.32-.6.8-.57 1.6-1.17 2.37-1.77.32-.25.81-.19 1.06.12.1.13.15.29.15.45.01.24-.1.46-.29.61-.77.61-1.59 1.22-2.42 1.81-.13.09-.28.14-.44.14zm4.73-3.68c-.22 0-.43-.1-.57-.27-.11-.13-.18-.3-.18-.47 0-.23.09-.44.27-.59.75-.64 1.5-1.3 2.23-1.96.29-.27.79-.24 1.05.05.13.14.2.32.2.5 0 .21-.08.4-.22.54l-.02.02c-.01.01-.02.02-.03.03-.73.66-1.48 1.33-2.24 1.97-.14.11-.31.18-.49.18zm4.43-4.05c-.21 0-.4-.08-.54-.22-.14-.15-.22-.33-.22-.54.01-.2.09-.38.23-.52.69-.69 1.39-1.41 2.07-2.13.27-.29.77-.31 1.06-.04.15.15.24.35.24.56-.01.19-.08.37-.21.5-.71.76-1.42 1.49-2.11 2.17-.14.14-.33.22-.52.22zm4.1-4.38c-.19 0-.36-.06-.5-.18-.16-.14-.25-.34-.25-.55-.01-.19.06-.37.18-.51.63-.72 1.27-1.49 1.9-2.28.26-.31.75-.36 1.06-.11.18.14.28.35.28.57 0 .18-.06.35-.17.48-.62.78-1.28 1.56-1.94 2.32-.14.17-.35.26-.56.26zm3.76-4.67c-.17 0-.32-.05-.45-.15-.19-.14-.3-.36-.3-.6 0-.16.05-.32.15-.45.6-.81 1.19-1.62 1.73-2.41l.02-.02c.23-.32.71-.39 1.03-.17.2.14.32.37.32.62 0 .15-.05.3-.13.42-.55.79-1.15 1.62-1.77 2.46-.15.19-.36.3-.6.3zm3.42-4.93c-.15 0-.29-.04-.41-.12-.21-.14-.34-.36-.34-.62-.01-.15.03-.29.12-.42.52-.81 1.04-1.66 1.56-2.53.21-.34.69-.46 1.03-.26.23.14.36.38.37.64 0 .14-.04.27-.11.39-.51.86-1.05 1.72-1.59 2.57-.14.22-.38.35-.63.35zm3.07-5.16c-.13 0-.25-.03-.36-.09-.24-.13-.39-.39-.39-.66 0-.13.03-.25.09-.36.5-.9.97-1.79 1.4-2.63.18-.36.65-.51 1.01-.32.25.12.4.37.41.65 0 .12-.03.24-.08.36-.47.91-.95 1.81-1.42 2.67-.14.24-.39.38-.66.38zm2.73-5.34c-.11 0-.22-.03-.32-.07-.26-.13-.43-.39-.43-.68 0-.11.02-.22.07-.32.42-.89.84-1.8 1.23-2.72.16-.37.62-.55.99-.39.28.12.45.4.45.7 0 .1-.02.2-.06.29-.4.91-.82 1.84-1.25 2.76-.12.26-.39.43-.68.43zm2.39-5.51c-.09 0-.19-.02-.28-.05-.28-.12-.46-.38-.47-.69 0-.1.02-.2.06-.29.37-.92.72-1.86 1.06-2.78.13-.38.58-.59.96-.45.29.1.49.39.49.7 0 .09-.01.17-.04.26-.33.89-.69 1.84-1.08 2.83-.11.28-.39.47-.7.47zm2.06-5.65c-.08 0-.16-.01-.24-.04-.31-.1-.52-.39-.51-.72 0-.07.01-.15.03-.22.32-.97.62-1.92.89-2.85l.03-.08v.01c.15-.35.55-.54.91-.43.31.09.53.37.53.7 0 .08 0 .15-.03.22l-.01.04c-.3 1.01-.59 1.94-.89 2.86-.1.31-.39.51-.71.51zm1.7-5.76c-.06 0-.12-.01-.19-.03-.33-.08-.56-.38-.56-.72 0-.05.01-.09.02-.13h-.01l.02-.06c0-.02.01-.03.01-.05.26-.97.49-1.93.7-2.85.09-.4.5-.65.9-.56.34.07.59.39.58.74 0 .06-.01.11-.02.15-.23 1.03-.47 1.99-.72 2.95-.09.33-.39.56-.73.56zm1.34-5.87c-.05 0-.1 0-.14-.01-.35-.07-.61-.37-.61-.73-.01-.05 0-.1.01-.15.35-1.89.47-2.92.47-2.93.05-.41.41-.71.83-.66.2.02.38.12.5.28.13.16.18.35.16.55-.01.12-.14 1.21-.49 3.04-.06.35-.37.61-.73.61z" fill="rgb(0,0,0)"/></g><g><path d="m83.312 23.463c-.265 0-.522-.141-.658-.39l-4.26-7.784-6.794 5.342c-.325.257-.796.2-1.053-.126-.256-.325-.2-.797.126-1.053l7.491-5.89c.174-.137.399-.188.614-.146.216.044.402.181.507.375l4.685 8.561c.199.363.066.819-.298 1.018-.115.064-.238.093-.36.093z" fill="rgb(0,0,0)"/></g></svg>